<svg xmlns="http://www.w3.org/2000/svg" width="40" height="40" viewBox="0 0 40 40"><defs><style>.a{fill:#2b2e31;}.b{fill:#cdcdcd;}</style></defs><g transform="translate(-1161 -7325)"><circle class="a" cx="20" cy="20" r="20" transform="translate(1161 7325)"/><g transform="translate(1058.509 7222.609)"><path class="b" d="M382.075,378.7a3.375,3.375,0,1,0,3.375,3.375A3.382,3.382,0,0,0,382.075,378.7Z" transform="translate(-259.587 -259.684)"/><path class="b" d="M132.611,122.391c0-1.4.013-2.783-.066-4.178a5.6,5.6,0,0,0-5.876-5.876c-1.4-.078-2.783-.066-4.178-.066s-2.783-.013-4.178.066a5.6,5.6,0,0,0-5.876,5.876c-.078,1.4-.066,2.783-.066,4.178s-.013,2.783.066,4.178a5.6,5.6,0,0,0,5.876,5.876c1.4.078,2.783.066,4.178.066s2.783.013,4.178-.066a5.6,5.6,0,0,0,5.876-5.876C132.626,125.173,132.611,123.789,132.611,122.391Zm-10.122,5.193a5.193,5.193,0,1,1,5.193-5.193A5.186,5.186,0,0,1,122.488,127.584Zm5.406-9.386a1.213,1.213,0,1,1,1.213-1.213A1.211,1.211,0,0,1,127.894,118.2Z" transform="translate(0 0)"/></g></g></svg>