<svg xmlns="http://www.w3.org/2000/svg" xmlns:xlink="http://www.w3.org/1999/xlink" fill="none" version="1.1" width="24" height="24" viewBox="0 0 24 24"><g style="mix-blend-mode:passthrough"><g></g><g><path d="M18.74964921875,5.24777397354126C15.20994921875,1.7065659735412597,9.56225921875,1.5422519735412599,5.81727921875,4.73965397354126C5.81727921875,4.73965397354126,5.81727921875,3.4238429735412597,5.81727921875,3.4238429735412597C5.81727921875,2.9845889735412596,5.46119921875,2.62834197354126,5.02210921875,2.62834197354126C4.583039218750001,2.62834197354126,4.22695921875,2.9845889735412596,4.22695921875,3.4238429735412597C4.22695921875,3.4238429735412597,4.22695921875,6.60585397354126,4.22695921875,6.60585397354126C4.22695921875,7.04510397354126,4.583039218750001,7.401333973541259,5.02210921875,7.401333973541259C5.02210921875,7.401333973541259,8.20276921875,7.401333973541259,8.20276921875,7.401333973541259C8.64185921875,7.401333973541259,8.997959218750001,7.04510397354126,8.997959218750001,6.60585397354126C8.997959218750001,6.166583973541259,8.64185921875,5.81034397354126,8.20276921875,5.81034397354126C8.20276921875,5.81034397354126,7.00629921875,5.81034397354126,7.00629921875,5.81034397354126C10.12607921875,3.28613297354126,14.72584921875,3.47207397354126,17.62524921875,6.37265397354126C20.72514921875,9.474353973541259,20.72514921875,14.52154397354126,17.62524921875,17.62294397354126C14.52454921875,20.72414397354126,9.48025921875,20.72414397354126,6.37960921875,17.62294397354126C4.87774921875,16.12044397354126,4.05077921875,14.12274397354126,4.05077921875,11.997813973541259C4.05077921875,11.558533973541259,3.6946992187500003,11.20230397354126,3.25561521875,11.20230397354126C2.81652821875,11.20230397354126,2.46044921875,11.558533973541259,2.46044921875,11.997813973541259C2.46044921875,14.54784397354126,3.4529112187499997,16.94534397354126,5.2551992187500005,18.74784397354126C7.11536921875,20.60884397354126,9.55877921875,21.53954397354126,12.00240921875,21.53954397354126C14.44584921875,21.53954397354126,16.889449218750002,20.60884397354126,18.74964921875,18.74784397354126C22.46954921875,15.02594397354126,22.46954921875,8.96971397354126,18.74964921875,5.24777397354126C18.74964921875,5.24777397354126,18.74964921875,5.24777397354126,18.74964921875,5.24777397354126Z" fill="#FCFEFF" fill-opacity="1"/></g><g><path d="M11.975738708984375,6.380615234375C11.531097708984374,6.380615234375,11.170501708984375,6.741180234375,11.170501708984375,7.185821234375C11.170501708984375,7.185821234375,11.170501708984375,11.850585234375,11.170501708984375,11.850585234375C11.170501708984375,12.172915234375001,11.296325708984375,12.476625234375,11.524291708984375,12.704625234375001C11.524291708984375,12.704625234375001,14.627171708984374,15.807495234375,14.627171708984374,15.807495234375C14.784421708984375,15.964725234375,14.990541708984376,16.043485234374998,15.196381708984376,16.043485234374998C15.402191708984375,16.043485234374998,15.608521708984375,15.964995234375,15.765531708984376,15.807495234375C16.080081708984373,15.492915234375,16.080081708984373,14.983395234375,15.765531708984376,14.668825234375C15.765531708984376,14.668825234375,12.780941708984376,11.683745234375,12.780941708984376,11.683745234375C12.780941708984376,11.683745234375,12.780941708984376,7.185821234375,12.780941708984376,7.185821234375C12.780941708984376,6.741180234375,12.420381708984376,6.380615234375,11.975738708984375,6.380615234375C11.975738708984375,6.380615234375,11.975738708984375,6.380615234375,11.975738708984375,6.380615234375Z" fill="#FCFEFF" fill-opacity="1"/></g></g></svg>