<svg xmlns="http://www.w3.org/2000/svg" width="40" height="40" viewBox="0 0 40 40"><defs><style>.a{fill:#2b2e31;}.b{fill:#cdcdcd;}</style></defs><g transform="translate(-1364 -7325)"><circle class="a" cx="20" cy="20" r="20" transform="translate(1364 7325)"/><g transform="translate(1177.561 6884.095)"><path class="b" d="M206.355,454.46a6.454,6.454,0,0,1,4.756,2.089,3.2,3.2,0,0,0,1.577.237c.464,0,.848-.023.848-.023s-1.194,1.7-1.058,2.111a6.446,6.446,0,0,1-10.89,6.363,2.817,2.817,0,0,0-1.432-.22c-.516,0-.97.031-.97.031s1.166-1.767,1.027-2.207a6.448,6.448,0,0,1,6.142-8.381m0-2.693v0h0a9.14,9.14,0,0,0-8.94,11c-.135.247-.316.551-.478.8l-2.985,4.54,5.419-.372s.375-.025.785-.025h.106A9.139,9.139,0,0,0,215.3,459c.132-.221.3-.479.445-.691l3.184-4.561-5.551.33s-.316.018-.688.018c-.09,0-.169,0-.239,0a9.169,9.169,0,0,0-6.094-2.323Z"/><circle class="b" cx="1.657" cy="1.657" r="1.657" transform="translate(193.952 453.966)"/></g></g></svg>