<svg xmlns="http://www.w3.org/2000/svg" width="54" height="54" viewBox="0 0 54 54"><defs><style>.a{fill:#7f8ba0;}.b{fill:#232530;}</style></defs><g transform="translate(-711 -1555)"><circle class="a" cx="27" cy="27" r="27" transform="translate(711 1555)"/><g transform="translate(644.999 1667.707) rotate(-90)"><path class="b" d="M338.2,349.7h-15.9l1.843-1.689a1.757,1.757,0,0,0,.1-2.482l-.092-.1a1.757,1.757,0,0,0-2.481-.1l-5.35,4.908a1.757,1.757,0,0,0-.1,2.482l.092.1a1.773,1.773,0,0,0,1.609.541H338.2a1.764,1.764,0,0,0,1.757-1.757v-.141A1.764,1.764,0,0,0,338.2,349.7Z" transform="translate(-242.322 -261.689)"/><path class="b" d="M337.242,531.641a1.773,1.773,0,0,0-1.609-.541H315.357a1.764,1.764,0,0,0-1.757,1.757V533a1.764,1.764,0,0,0,1.757,1.757h15.9l-1.843,1.689a1.757,1.757,0,0,0-.1,2.482l.092.1a1.757,1.757,0,0,0,2.482.1l5.35-4.908a1.757,1.757,0,0,0,.1-2.482Z" transform="translate(-240.294 -436.463)"/></g></g></svg>