<svg xmlns="http://www.w3.org/2000/svg" xmlns:xlink="http://www.w3.org/1999/xlink" width="40" height="40" viewBox="0 0 40 40"><defs><style>.a{fill:#fff;}.b{fill:#2b2e31;}.c{clip-path:url(#a);}.d{fill:#cdcdcd;}</style><clipPath id="a"><circle class="a" cx="13" cy="13" r="13" transform="translate(1246 7332)"/></clipPath></defs><g transform="translate(-1239 -7325)"><circle class="b" cx="20" cy="20" r="20" transform="translate(1239 7325)"/><g class="c"><path class="d" d="M18.414,6.526l1.409-1.354v-.3H14.942l-3.478,8.7-3.957-8.7H2.39v.3L4.036,7.162a.7.7,0,0,1,.223.579v7.823a.889.889,0,0,1-.237.775L2.167,18.6v.292H7.422v-.3L5.569,16.342a.919.919,0,0,1-.255-.775V8.8L9.928,18.9h.536L14.432,8.8v8.044c0,.212,0,.255-.138.4l-1.428,1.386v.3h6.925v-.3l-1.377-1.354a.416.416,0,0,1-.156-.4V6.921A.416.416,0,0,1,18.414,6.526Z" transform="translate(1248.005 7333.102)"/></g></g></svg>