<svg xmlns="http://www.w3.org/2000/svg" xmlns:xlink="http://www.w3.org/1999/xlink" width="122.324" height="27.131" viewBox="0 0 122.324 27.131"><defs><style>.a{fill:#fff;}.b{fill:url(#a);}</style><linearGradient id="a" x1="0.097" y1="0.788" x2="0.918" y2="0.231" gradientUnits="objectBoundingBox"><stop offset="0" stop-color="#72f5f6"/><stop offset="1" stop-color="#171aff"/></linearGradient></defs><g transform="translate(-191.952 -451.766)"><g transform="translate(193.952 451.767)"><path class="a" d="M211.6,455.6a9.185,9.185,0,0,1,6.769,2.973,4.55,4.55,0,0,0,2.244.337c.661,0,1.207-.033,1.207-.033s-1.7,2.426-1.506,3a9.173,9.173,0,0,1-15.5,9.056,4.008,4.008,0,0,0-2.038-.313c-.734,0-1.38.044-1.38.044s1.66-2.515,1.462-3.141A9.176,9.176,0,0,1,211.6,455.6m0-3.832v0h0a13.007,13.007,0,0,0-12.723,15.657c-.192.352-.45.784-.68,1.135l-4.247,6.46,7.711-.529s.533-.035,1.117-.035h.15a13.006,13.006,0,0,0,21.4-12.4c.188-.315.423-.681.634-.984l4.531-6.491-7.9.469s-.45.026-.979.026c-.128,0-.241,0-.341,0a13.048,13.048,0,0,0-8.672-3.306Z" transform="translate(-193.952 -451.767)"/><circle class="b" cx="2.358" cy="2.358" r="2.358" transform="translate(0 3.129)"/></g><g transform="translate(171.303 427.766)"><g transform="translate(20.649 24)"><path class="a" d="M212.364,455.764a9.581,9.581,0,0,1,7.061,3.1,4.746,4.746,0,0,0,2.341.351c.69,0,1.259-.034,1.259-.034s-1.772,2.53-1.571,3.133a9.568,9.568,0,0,1-16.166,9.446,4.181,4.181,0,0,0-2.126-.326c-.766,0-1.44.046-1.44.046s1.731-2.624,1.525-3.276a9.571,9.571,0,0,1,9.118-12.442m0-4v0h0A13.568,13.568,0,0,0,199.092,468.1c-.2.367-.469.818-.71,1.184l-4.431,6.739L202,475.47s.556-.037,1.165-.037h.157A13.567,13.567,0,0,0,225.639,462.5c.2-.329.441-.711.661-1.026l4.726-6.77-8.24.489s-.47.027-1.021.027c-.133,0-.251,0-.355,0a13.611,13.611,0,0,0-9.046-3.448Z" transform="translate(-193.353 -451.767)"/><circle class="b" cx="2.46" cy="2.46" r="2.46" transform="translate(0 2.964)"/></g><path class="a" d="M4.688-72.727h7.785l5.355,13.05h.27l5.355-13.05h7.785v23.039h-6.12v-13.32h-.18l-5.13,13.14h-3.69L10.987-63.1h-.18v13.41H4.688Z" transform="translate(58.542 98.826)"/><path class="a" d="M9.338-72.727l4.725,16.245h.18l4.725-16.245h7.065l-7.6,23.039H9.878l-7.6-23.039Z" transform="translate(92.357 98.826)"/><path class="a" d="M26-64.767H19.658A4.394,4.394,0,0,0,19.3-66.2a3.391,3.391,0,0,0-.787-1.108,3.448,3.448,0,0,0-1.209-.72,4.765,4.765,0,0,0-1.609-.253,4.5,4.5,0,0,0-2.661.765A4.669,4.669,0,0,0,11.4-65.318a9.453,9.453,0,0,0-.557,3.431,9.593,9.593,0,0,0,.568,3.538,4.442,4.442,0,0,0,1.648,2.137,4.6,4.6,0,0,0,2.6.714,5.09,5.09,0,0,0,1.552-.219,3.564,3.564,0,0,0,1.192-.636,3.372,3.372,0,0,0,.827-1.007,4.039,4.039,0,0,0,.433-1.333L26-58.647a8.549,8.549,0,0,1-.821,2.976,9.642,9.642,0,0,1-2.008,2.79,9.745,9.745,0,0,1-3.212,2.053,11.756,11.756,0,0,1-4.444.776,11.751,11.751,0,0,1-5.687-1.361,9.821,9.821,0,0,1-3.971-4A13.239,13.239,0,0,1,4.4-61.887a13.052,13.052,0,0,1,1.485-6.485,9.962,9.962,0,0,1,4-3.994,11.681,11.681,0,0,1,5.625-1.356,12.927,12.927,0,0,1,4.016.6,9.719,9.719,0,0,1,3.217,1.738,8.673,8.673,0,0,1,2.227,2.807A10.254,10.254,0,0,1,26-64.767Z" transform="translate(116.97 99.52)"/></g></g></svg>