<svg xmlns="http://www.w3.org/2000/svg" width="40" height="40" viewBox="0 0 40 40"><defs><style>.a{fill:#2b2e31;}.b{fill:#cdcdcd;}</style></defs><g transform="translate(-1299 -7325)"><circle class="a" cx="20" cy="20" r="20" transform="translate(1299 7325)"/><path class="b" d="M70.836,65.428a.057.057,0,0,0-.029-.026A18.328,18.328,0,0,0,66.285,64a.069.069,0,0,0-.073.034,12.748,12.748,0,0,0-.563,1.156,16.921,16.921,0,0,0-5.079,0A11.7,11.7,0,0,0,60,64.034.071.071,0,0,0,59.926,64,18.276,18.276,0,0,0,55.4,65.4a.065.065,0,0,0-.03.026,18.737,18.737,0,0,0-3.282,12.64.076.076,0,0,0,.029.052,18.426,18.426,0,0,0,5.548,2.8.072.072,0,0,0,.078-.026,13.155,13.155,0,0,0,1.135-1.845.07.07,0,0,0-.039-.1,12.134,12.134,0,0,1-1.733-.826.071.071,0,0,1-.007-.118q.175-.131.344-.27a.069.069,0,0,1,.072-.01,13.143,13.143,0,0,0,11.165,0,.068.068,0,0,1,.073.009q.169.14.345.271a.071.071,0,0,1-.006.118,11.387,11.387,0,0,1-1.734.825.071.071,0,0,0-.038.1A14.775,14.775,0,0,0,68.458,80.9a.07.07,0,0,0,.078.026,18.364,18.364,0,0,0,5.556-2.8.071.071,0,0,0,.029-.051A18.613,18.613,0,0,0,70.836,65.428ZM59.424,75.544a2.253,2.253,0,0,1,0-4.477,2.253,2.253,0,0,1,0,4.477Zm7.382,0a2.253,2.253,0,0,1,0-4.477,2.253,2.253,0,0,1,0,4.477Z" transform="translate(1255.892 7272.538)"/></g></svg>