<svg xmlns="http://www.w3.org/2000/svg" width="24" height="24" viewBox="0 0 24 24"><defs><style>.a{fill:none;}.b{fill:#fcfeff;}</style></defs><g transform="translate(-127.639 -127.998)"><rect class="a" width="24" height="24" transform="translate(127.639 127.998)"/><path class="b" d="M144.289,131.133a9.546,9.546,0,0,0-12.932-.508v-1.316a.8.8,0,1,0-1.59,0v3.182a.8.8,0,0,0,.8.8h3.181a.8.8,0,0,0,0-1.591h-1.2a7.956,7.956,0,1,1-2.956,6.187.8.8,0,1,0-1.59,0,9.543,9.543,0,1,0,16.289-6.75Z" transform="translate(2.099 2.113)"/><path class="b" d="M480.805,288a.805.805,0,0,0-.805.805v4.665a1.2,1.2,0,0,0,.354.854l3.1,3.1a.805.805,0,0,0,1.138-1.139L481.61,293.3v-4.5A.805.805,0,0,0,480.805,288Z" transform="translate(-341.191 -153.621)"/></g></svg>