<svg xmlns="http://www.w3.org/2000/svg" width="40" height="40" viewBox="0 0 40 40"><defs><style>.a{fill:#2b2e31;}.b{fill:#cdcdcd;}</style></defs><g transform="translate(-1364 -7325)"><circle class="a" cx="20" cy="20" r="20" transform="translate(1364 7325)"/><path class="b" d="M135.661,185.627a12.111,12.111,0,0,0,5.371,1.391s-.933-3.266,1.95-4.715a4.006,4.006,0,0,1,4.867.993s.5-.138.877-.276.916-.385.916-.385l-.889,1.594,1.369-.145a5.35,5.35,0,0,1-.717.751,10.66,10.66,0,0,0-.773.766,12.759,12.759,0,0,1-1.865,6.958,11.143,11.143,0,0,1-8.593,5.226,10.852,10.852,0,0,1-6.389-1.192,11.393,11.393,0,0,0,2.769-.511,16.026,16.026,0,0,0,2.629-1.5,10.134,10.134,0,0,1-3-1.449,4.508,4.508,0,0,1-.988-1.221l2.176-.029a11.037,11.037,0,0,1-2.939-2.188,4.506,4.506,0,0,1-.734-1.9l1.674.678a9.587,9.587,0,0,1-1.589-3.377,3.839,3.839,0,0,1,.254-2.272S132.749,184.15,135.661,185.627Z" transform="translate(1244.3 7156.156)"/></g></svg>