<svg xmlns="http://www.w3.org/2000/svg" xmlns:xlink="http://www.w3.org/1999/xlink" fill="none" version="1.1" width="26" height="25.88848876953125" viewBox="0 0 26 25.88848876953125"><g style="mix-blend-mode:passthrough"><path d="M6.54018,3.88849103515625L16.3531,0.31686403515625Q18.2993,-0.39148196484375,20.1763,0.48378803515625Q22.0533,1.35906103515625,22.7617,3.30523103515625L23.0223,4.02134103515625Q23.181,4.06329103515625,23.3357,4.11810103515625Q23.4905,4.17291103515625,23.6402,4.24021103515625Q23.7899,4.30752103515625,23.9335,4.38686103515625Q24.0772,4.46620103515625,24.2139,4.55704103515625Q24.3506,4.64789103515625,24.4794,4.74963103515625Q24.6082,4.85137103515625,24.7283,4.96332103515625Q24.8483,5.07527103515625,24.9587,5.19668103515625Q25.0692,5.31809103515625,25.1693,5.44814103515625Q25.2695,5.57819103515625,25.3586,5.71600103515625Q25.4478,5.85382103515625,25.5253,5.99848103515625Q25.6029,6.14313103515625,25.6683,6.29366103515625Q25.7338,6.44418103515625,25.7866,6.59956103515625Q25.8395,6.75494103515625,25.8795,6.91413103515625Q25.9195,7.07332103515625,25.9463,7.23526103515625Q25.9731,7.39719103515625,25.9866,7.56077103515625Q26,7.72435103515625,26,7.88849103515625L26,21.88846103515625Q26,22.08496103515625,25.9807,22.28056103515625Q25.9615,22.47616103515625,25.9231,22.66886103515625Q25.8848,22.86156103515625,25.8278,23.04966103515625Q25.7707,23.23766103515625,25.6955,23.41926103515625Q25.6203,23.60076103515625,25.5277,23.77406103515625Q25.435,23.94736103515625,25.3259,24.11076103515625Q25.2167,24.27416103515625,25.092,24.42606103515625Q24.9674,24.57796103515625,24.8284,24.71696103515625Q24.6895,24.85586103515625,24.5376,24.98056103515625Q24.3857,25.10516103515625,24.2223,25.21436103515625Q24.0589,25.32356103515625,23.8856,25.41616103515625Q23.7123,25.50876103515625,23.5307,25.58396103515625Q23.3492,25.65916103515625,23.1611,25.71626103515625Q22.9731,25.77326103515625,22.7804,25.81166103515625Q22.5876,25.84996103515625,22.3921,25.86926103515625Q22.1965,25.88846103515625,22,25.88846103515625L4,25.88846103515625Q3.80349,25.88846103515625,3.60793,25.86926103515625Q3.41237,25.84996103515625,3.21964,25.81166103515625Q3.02691,25.77326103515625,2.83886,25.71626103515625Q2.65082,25.65916103515625,2.46927,25.58396103515625Q2.28772,25.50876103515625,2.11441,25.41616103515625Q1.94111,25.32356103515625,1.77772,25.21436103515625Q1.61433,25.10516103515625,1.46243,24.98056103515625Q1.31052,24.85586103515625,1.17157,24.71696103515625Q1.03262,24.57796103515625,0.907958,24.42606103515625Q0.783295,24.27416103515625,0.674121,24.11076103515625Q0.564948,23.94736103515625,0.472315,23.77406103515625Q0.379682,23.60076103515625,0.304482,23.41926103515625Q0.229282,23.23766103515625,0.172239,23.04966103515625Q0.115196,22.86156103515625,0.0768589,22.66886103515625Q0.0385222,22.47616103515625,0.0192611,22.28056103515625Q0,22.08496103515625,0,21.88846103515625L0,7.88849103515625Q0,7.69198103515625,0.0192611,7.49642103515625Q0.0385222,7.30086103515625,0.0768589,7.10813103515625Q0.115196,6.91540103515625,0.172239,6.72735103515625Q0.229282,6.53930103515625,0.304482,6.35775103515625Q0.379682,6.17621103515625,0.472315,6.00290103515625Q0.564948,5.82960103515625,0.674121,5.66621103515625Q0.783295,5.50282103515625,0.907958,5.35091103515625Q1.03262,5.19901103515625,1.17157,5.06006103515625Q1.31052,4.92111103515625,1.46243,4.79645103515625Q1.61433,4.67178103515625,1.77772,4.56261103515625Q1.94111,4.45343103515625,2.11441,4.36080103515625Q2.28772,4.26817103515625,2.46927,4.19297103515625Q2.65082,4.11777103515625,2.83886,4.06073103515625Q3.02691,4.00368103515625,3.21964,3.96535103515625Q3.41237,3.92701103515625,3.60793,3.90775103515625Q3.80349,3.88849103515625,4,3.88849103515625L6.54018,3.88849103515625ZM19.3311,2.29640103515625Q20.4081,2.79863103515625,20.8438,3.88849103515625L12.3878,3.88849103515625L17.0372,2.19625103515625Q18.2049,1.77124103515625,19.3311,2.29640103515625ZM2.58579,23.30266103515625Q2,22.71696103515625,2,21.88846103515625L2,7.88849103515625Q2,7.06006103515625,2.58579,6.47427103515625Q3.17157,5.88849103515625,4,5.88849103515625L22,5.88849103515625Q22.8284,5.88849103515625,23.4142,6.47427103515625Q24,7.06006103515625,24,7.88849103515625L24,21.88846103515625Q24,22.71696103515625,23.4142,23.30266103515625Q22.8284,23.88846103515625,22,23.88846103515625L4,23.88846103515625Q3.17157,23.88846103515625,2.58579,23.30266103515625ZM12.1001,18.27126103515625L12.1001,15.57126103515625L9.4,15.57126103515625Q9.31136,15.57126103515625,9.22442,15.55396103515625Q9.13748,15.53676103515625,9.05558,15.50276103515625Q8.97369,15.46886103515625,8.89999,15.41966103515625Q8.82628,15.37036103515625,8.7636,15.30766103515625Q8.70092,15.24506103515625,8.65168,15.17136103515625Q8.60243,15.09756103515625,8.56851,15.01576103515625Q8.53459,14.93386103515625,8.51729,14.84686103515625Q8.5,14.75996103515625,8.5,14.67126103515625Q8.5,14.58266103515625,8.51729,14.49576103515625Q8.53459,14.40876103515625,8.56851,14.32686103515625Q8.60243,14.24496103515625,8.65168,14.17126103515625Q8.70092,14.09756103515625,8.7636,14.03486103515625Q8.82628,13.97226103515625,8.89999,13.92296103515625Q8.97369,13.87376103515625,9.05558,13.83976103515625Q9.13748,13.80586103515625,9.22442,13.78856103515625Q9.31136,13.77126103515625,9.4,13.77126103515625L12.1001,13.77126103515625L12.1001,11.07126103515625Q12.1001,10.98266103515625,12.1174,10.89566103515625Q12.1347,10.80876103515625,12.1686,10.72686103515625Q12.2025,10.64496103515625,12.2518,10.57126103515625Q12.301,10.49756103515625,12.3637,10.43486103515625Q12.4264,10.37216103515625,12.5001,10.32296103515625Q12.5738,10.27366103515625,12.6557,10.23976103515625Q12.7376,10.20586103515625,12.8245,10.18856103515625Q12.9115,10.17126103515625,13.0001,10.17126103515625Q13.0887,10.17126103515625,13.1757,10.18856103515625Q13.2626,10.20586103515625,13.3445,10.23976103515625Q13.4264,10.27366103515625,13.5001,10.32296103515625Q13.5738,10.37216103515625,13.6365,10.43486103515625Q13.6992,10.49756103515625,13.7484,10.57126103515625Q13.7977,10.64496103515625,13.8316,10.72686103515625Q13.8655,10.80876103515625,13.8828,10.89566103515625Q13.9001,10.98266103515625,13.9001,11.07126103515625L13.9001,13.77126103515625L16.6,13.77126103515625Q16.6886,13.77126103515625,16.7756,13.78856103515625Q16.8625,13.80586103515625,16.9444,13.83976103515625Q17.0263,13.87376103515625,17.1,13.92296103515625Q17.1737,13.97226103515625,17.2364,14.03486103515625Q17.2991,14.09756103515625,17.3483,14.17126103515625Q17.3976,14.24496103515625,17.4315,14.32686103515625Q17.4654,14.40876103515625,17.4827,14.49576103515625Q17.5,14.58266103515625,17.5,14.67126103515625Q17.5,14.75996103515625,17.4827,14.84686103515625Q17.4654,14.93386103515625,17.4315,15.01576103515625Q17.3976,15.09756103515625,17.3483,15.17136103515625Q17.2991,15.24506103515625,17.2364,15.30766103515625Q17.1737,15.37036103515625,17.1,15.41966103515625Q17.0263,15.46886103515625,16.9444,15.50276103515625Q16.8625,15.53676103515625,16.7756,15.55396103515625Q16.6886,15.57126103515625,16.6,15.57126103515625L13.9001,15.57126103515625L13.9001,18.27126103515625Q13.9001,18.35986103515625,13.8828,18.44686103515625Q13.8655,18.53376103515625,13.8316,18.61566103515625Q13.7977,18.69756103515625,13.7484,18.77126103515625Q13.6992,18.84496103515625,13.6365,18.90766103515625Q13.5738,18.97036103515625,13.5001,19.01956103515625Q13.4264,19.06886103515625,13.3445,19.10276103515625Q13.2626,19.13666103515625,13.1757,19.15396103515625Q13.0887,19.17126103515625,13.0001,19.17126103515625Q12.9115,19.17126103515625,12.8245,19.15396103515625Q12.7376,19.13666103515625,12.6557,19.10276103515625Q12.5738,19.06886103515625,12.5001,19.01956103515625Q12.4264,18.97036103515625,12.3637,18.90766103515625Q12.301,18.84496103515625,12.2518,18.77126103515625Q12.2025,18.69756103515625,12.1686,18.61566103515625Q12.1347,18.53376103515625,12.1174,18.44686103515625Q12.1001,18.35986103515625,12.1001,18.27126103515625Z" fill-rule="evenodd" fill="#303133" fill-opacity="1"/></g></svg>