<svg xmlns="http://www.w3.org/2000/svg" xmlns:xlink="http://www.w3.org/1999/xlink" fill="none" version="1.1" width="26" height="25.888458251953125" viewBox="0 0 26 25.888458251953125"><g style="mix-blend-mode:passthrough"><path d="M16.3531,0.316834L6.54026,3.88843L12.3879,3.88843L17.0372,2.19622Q18.2049,1.77121,19.3311,2.29637Q20.4081,2.79859,20.8438,3.88843L22,3.88843Q22.0512,3.88843,22.1024,3.88974C22.0684,3.88889,22.0342,3.88846,22,3.88846L4,3.88846C1.79086,3.88846,0,5.67932,0,7.88846L0,21.8885C0,24.0976,1.79086,25.8885,4,25.8885L22,25.8885C24.2091,25.8885,26,24.0976,26,21.8885L26,7.88846C26,6.03253,24.736,4.47181,23.0219,4.02019L22.7617,3.3052Q22.0533,1.35903,20.1763,0.483758Q18.2993,-0.391513,16.3531,0.316834ZM24,10.8885L24,7.88846Q24,7.06003,23.4142,6.47424Q22.8284,5.88846,22,5.88846L4,5.88846Q3.17157,5.88846,2.58579,6.47424Q2,7.06003,2,7.88846L2,21.8885Q2,22.7169,2.58579,23.3027Q3.17157,23.8885,4,23.8885L22,23.8885Q22.8284,23.8885,23.4142,23.3027Q24,22.7169,24,21.8885L24,18.8885L20,18.8885C17.7909,18.8885,16,17.0976,16,14.8885C16,12.6793,17.7909,10.8885,20,10.8885L24,10.8885ZM24,16.8885L24,12.8885L20,12.8885Q19.1716,12.8885,18.5858,13.4742Q18,14.06,18,14.8885Q18,15.7169,18.5858,16.3027Q19.1716,16.8885,20,16.8885L24,16.8885Z" fill-rule="evenodd" fill="#303133" fill-opacity="1"/></g></svg>