<svg xmlns="http://www.w3.org/2000/svg" xmlns:xlink="http://www.w3.org/1999/xlink" fill="none" version="1.1" width="24" height="24" viewBox="0 0 24 24"><g style="mix-blend-mode:passthrough"><g></g><g><path d="M20.675299182128906,21.74696619873047C20.675299182128906,21.74696619873047,4.331809182128906,21.74696619873047,4.331809182128906,21.74696619873047C3.048019182128906,21.74696619873047,2.007118222128906,20.706166198730468,2.007118222128906,19.42236619873047C2.007118222128906,19.42236619873047,2.007118222128906,7.0330861987304685,2.007118222128906,7.0330861987304685C2.007118222128906,7.0330861987304685,2.0000991821289062,7.037686198730468,2.0000991821289062,7.037686198730468C2.0000991821289062,7.037686198730468,2.002258302128906,6.522946198730469,2.0043029821289062,5.9282861987304685C2.0039253221289064,5.861646198730469,2.0039253221289064,5.800896198730468,2.0049133321289063,5.745846198730469C2.0065307621289064,5.2575361987304685,2.007919312128906,4.745876198730469,2.007919312128906,4.437906198730468C2.007919312128906,3.3141961987304684,2.8537141821289063,2.2531661987304688,4.111739182128906,2.2531661987304688C4.111739182128906,2.2531661987304688,17.008999182128907,2.2531661987304688,17.008999182128907,2.2531661987304688C18.132699182128906,2.2531661987304688,19.299599182128905,2.997032198730469,19.299599182128905,4.437906198730468C19.299599182128905,4.737256198730469,19.301699182128907,4.990756198730469,19.296099182128906,5.205816198730469C19.296099182128906,5.205816198730469,20.675299182128906,5.205816198730469,20.675299182128906,5.205816198730469C21.959099182128906,5.205816198730469,22.999999182128906,6.246616198730469,22.999999182128906,7.530306198730469C22.999999182128906,7.530306198730469,22.999999182128906,19.42236619873047,22.999999182128906,19.42236619873047C22.999999182128906,20.706166198730468,21.959099182128906,21.74696619873047,20.675299182128906,21.74696619873047C20.675299182128906,21.74696619873047,20.675299182128906,21.74696619873047,20.675299182128906,21.74696619873047ZM17.833699182128907,4.435906198730469C17.833699182128907,4.015146198730469,17.490199182128904,3.673816198730469,17.008999182128907,3.673816198730469C17.008999182128907,3.673816198730469,4.276199182128906,3.673816198730469,4.276199182128906,3.673816198730469C3.794889182128906,3.673816198730469,3.451399182128906,4.015166198730469,3.451399182128906,4.435906198730469C3.451399182128906,4.856596198730468,3.794889182128906,5.197966198730469,4.276199182128906,5.197966198730469C4.276199182128906,5.197966198730469,17.833699182128907,5.197966198730469,17.833699182128907,5.197966198730469C17.833699182128907,5.197966198730469,17.833699182128907,4.435906198730469,17.833699182128907,4.435906198730469C17.833699182128907,4.435906198730469,17.833699182128907,4.435906198730469,17.833699182128907,4.435906198730469ZM21.532199182128906,11.961656198730468C21.532199182128906,11.961656198730468,15.508999182128907,11.961656198730468,15.508999182128907,11.961656198730468C15.508999182128907,11.961656198730468,15.508999182128907,14.967466198730468,15.508999182128907,14.967466198730468C15.508999182128907,14.967466198730468,21.532199182128906,14.967466198730468,21.532199182128906,14.967466198730468C21.532199182128906,14.967466198730468,21.532199182128906,11.961656198730468,21.532199182128906,11.961656198730468C21.532199182128906,11.961656198730468,21.532199182128906,11.961656198730468,21.532199182128906,11.961656198730468ZM21.532199182128906,16.45866619873047C21.532199182128906,16.45866619873047,15.180099182128906,16.45866619873047,15.180099182128906,16.45866619873047C14.538199182128906,16.45866619873047,14.017799182128906,16.050866198730468,14.017799182128906,14.967466198730468C14.017799182128906,14.967466198730468,14.017799182128906,11.632776198730468,14.017799182128906,11.632776198730468C14.017799182128906,10.991006198730469,14.538199182128906,10.470596198730469,15.180099182128906,10.470596198730469C15.180099182128906,10.470596198730469,21.532199182128906,10.470596198730469,21.532199182128906,10.470596198730469C21.532199182128906,10.470596198730469,21.532199182128906,7.859176198730469,21.532199182128906,7.859176198730469C21.532199182128906,7.217316198730469,21.011799182128907,6.696896198730469,20.369799182128908,6.696896198730469C20.369799182128908,6.696896198730469,18.347499182128907,6.696896198730469,18.347499182128907,6.696896198730469C18.347499182128907,6.696896198730469,3.474909182128906,6.696896198730469,3.474909182128906,6.696896198730469C3.474909182128906,6.696896198730469,3.474909182128906,19.093466198730468,3.474909182128906,19.093466198730468C3.474909182128906,19.735366198730468,3.995349182128906,20.25576619873047,4.637249182128906,20.25576619873047C4.637249182128906,20.25576619873047,20.369799182128908,20.25576619873047,20.369799182128908,20.25576619873047C21.011799182128907,20.25576619873047,21.532199182128906,19.735366198730468,21.532199182128906,19.093466198730468C21.532199182128906,19.093466198730468,21.532199182128906,16.45866619873047,21.532199182128906,16.45866619873047C21.532199182128906,16.45866619873047,21.532199182128906,16.45866619873047,21.532199182128906,16.45866619873047Z" fill="#FFFFFF" fill-opacity="1"/></g></g></svg>